<?xml version="1.0" encoding="UTF-8"?>
<svg height="16px" viewBox="0 0 16 16" width="16px" xmlns="http://www.w3.org/2000/svg">
    <g fill="#241f31">
        <path d="m 8 0 c -0.554688 0 -1 0.445312 -1 1 v 1 c 0 0.554688 0.445312 1 1 1 s 1 -0.445312 1 -1 v -1 c 0 -0.554688 -0.445312 -1 -1 -1 z m -4.992188 2.003906 c -0.257812 0 -0.511718 0.097656 -0.707031 0.296875 c -0.394531 0.390625 -0.394531 1.019531 0 1.410157 l 0.707031 0.707031 c 0.390626 0.394531 1.019532 0.394531 1.410157 0 c 0.394531 -0.390625 0.394531 -1.019531 0 -1.410157 l -0.707031 -0.707031 c -0.195313 -0.199219 -0.449219 -0.296875 -0.703126 -0.296875 z m 9.984376 0 c -0.253907 0 -0.507813 0.097656 -0.703126 0.296875 l -0.707031 0.707031 c -0.394531 0.390626 -0.394531 1.019532 0 1.410157 c 0.390625 0.394531 1.019531 0.394531 1.410157 0 l 0.707031 -0.707031 c 0.394531 -0.390626 0.394531 -1.019532 0 -1.410157 c -0.195313 -0.199219 -0.449219 -0.296875 -0.707031 -0.296875 z m -4.992188 1.996094 c -2.210938 0 -4 1.789062 -4 4 c 0 1.378906 0.699219 2.597656 1.761719 3.316406 l 5.496093 -1 c 0.464844 -0.652344 0.742188 -1.453125 0.742188 -2.316406 c 0 -2.210938 -1.789062 -4 -4 -4 z m 0 2 c 1.105469 0 2 0.894531 2 2 s -0.894531 2 -2 2 s -2 -0.894531 -2 -2 s 0.894531 -2 2 -2 z m -7 1 c -0.554688 0 -1 0.445312 -1 1 s 0.445312 1 1 1 h 1 c 0.554688 0 1 -0.445312 1 -1 s -0.445312 -1 -1 -1 z m 13 0 c -0.554688 0 -1 0.445312 -1 1 s 0.445312 1 1 1 h 1 c 0.554688 0 1 -0.445312 1 -1 s -0.445312 -1 -1 -1 z m 0 0"/>
        <path d="m 2 15 c 0 0.550781 0.449219 1 1 1 h 10 c 0.550781 0 1 -0.449219 1 -1 v -2.011719 c 0 -0.246093 -0.109375 -0.480469 -0.296875 -0.640625 c -0.1875 -0.15625 -0.433594 -0.226562 -0.675781 -0.183594 l -10.039063 1.671876 c -0.570312 0.09375 -0.988281 0.585937 -0.988281 1.164062 z m 0 0"/>
    </g>
</svg>
