<svg width="128" height="128" viewBox="0 0 128 128" fill="none" xmlns="http://www.w3.org/2000/svg">
<g clip-path="url(#clip0_3_150)">
<mask id="mask0_3_150" style="mask-type:luminance" maskUnits="userSpaceOnUse" x="40" y="61" width="48" height="55">
<path d="M40 61H88V116H40V61Z" fill="white"/>
</mask>
<g mask="url(#mask0_3_150)">
<mask id="mask1_3_150" style="mask-type:luminance" maskUnits="userSpaceOnUse" x="39" y="46" width="50" height="71">
<path d="M39.1406 46.5547H88.8594V116.879H39.1406V46.5547ZM76.7109 91.6016C76.7109 84.4258 71.0195 78.6055 64 78.6055C56.9805 78.6055 51.293 84.4258 51.293 91.6016C51.293 98.7773 56.9805 104.598 64 104.598C71.0195 104.598 76.7109 98.7773 76.7109 91.6016Z" fill="white"/>
</mask>
<g mask="url(#mask1_3_150)">
<path d="M44.3906 61.4297H83.6094C86.043 61.4297 88 63.3594 88 65.7578V111.676C88 114.07 86.043 116 83.6094 116H44.3906C41.957 116 40 114.07 40 111.676V65.7578C40 63.3594 41.957 61.4297 44.3906 61.4297Z" fill="#9A9996"/>
</g>
</g>
<mask id="mask2_3_150" style="mask-type:luminance" maskUnits="userSpaceOnUse" x="40" y="47" width="48" height="55">
<path d="M40 47H88V102H40V47Z" fill="white"/>
</mask>
<g mask="url(#mask2_3_150)">
<mask id="mask3_3_150" style="mask-type:luminance" maskUnits="userSpaceOnUse" x="39" y="46" width="50" height="71">
<path d="M39.1406 46.5547H88.8594V116.879H39.1406V46.5547ZM76.7109 91.6016C76.7109 84.4258 71.0195 78.6055 64 78.6055C56.9805 78.6055 51.293 84.4258 51.293 91.6016C51.293 98.7773 56.9805 104.598 64 104.598C71.0195 104.598 76.7109 98.7773 76.7109 91.6016Z" fill="white"/>
</mask>
<g mask="url(#mask3_3_150)">
<path d="M40 47.4297H88V102H40V47.4297Z" fill="#818084"/>
</g>
</g>
<path d="M21.457 25.8594H106.547C111.766 25.8594 116 30.0938 116 35.3125V88.5469C116 93.7656 111.766 98 106.547 98H21.457C16.2344 98 12 93.7656 12 88.5469V35.3125C12 30.0938 16.2344 25.8594 21.457 25.8594Z" fill="url(#paint0_linear_3_150)"/>
<path d="M21.457 12H106.547C111.766 12 116 16.3203 116 21.6484V84.3516C116 89.6797 111.766 94 106.547 94H21.457C16.2344 94 12 89.6797 12 84.3516V21.6484C12 16.3203 16.2344 12 21.457 12Z" fill="#F6F5F4" fill-opacity="0.819608"/>
<path d="M21.457 12H106.547C111.766 12 116 16.2148 116 21.4102V82.5898C116 87.7852 111.766 92 106.547 92H21.457C16.2344 92 12 87.7852 12 82.5898V21.4102C12 16.2148 16.2344 12 21.457 12Z" fill="#DEDDDA"/>
<path d="M20.8008 16H107.199C109.852 16 112 18.1602 112 20.8281V81.1719C112 83.8398 109.852 86 107.199 86H20.8008C18.1484 86 16 83.8398 16 81.1719V20.8281C16 18.1602 18.1484 16 20.8008 16Z" fill="#241F31"/>
<path d="M22.0742 20H105.926C107.07 20 108 20.9258 108 22.0664V79.9336C108 81.0742 107.07 82 105.926 82H22.0742C20.9297 82 20 81.0742 20 79.9336V22.0664C20 20.9258 20.9297 20 22.0742 20Z" fill="url(#paint1_radial_3_150)"/>
<mask id="mask4_3_150" style="mask-type:luminance" maskUnits="userSpaceOnUse" x="-2" y="-2" width="132" height="132">
<path d="M128 0H0V128H128V0Z" stroke="white" stroke-width="2.58134" stroke-linecap="round"/>
</mask>
<g mask="url(#mask4_3_150)">
<mask id="mask5_3_150" style="mask-type:luminance" maskUnits="userSpaceOnUse" x="-8" y="-16" width="192" height="152">
<path d="M184 -16H-8V136H184V-16Z" fill="white"/>
</mask>
<g mask="url(#mask5_3_150)">
<path d="M23.3789 32.1368V23.1602H32.4063" stroke="white" stroke-width="2.32402" stroke-linecap="round"/>
<path d="M104.637 32.1368V23.1602H95.6094" stroke="white" stroke-width="2.32402" stroke-linecap="round"/>
<path d="M104.637 69.8634V78.8399H95.6094" stroke="white" stroke-width="2.32402" stroke-linecap="round"/>
<path d="M23.3789 69.8634V78.8399H32.4063" stroke="white" stroke-width="2.32402" stroke-linecap="round"/>
</g>
</g>
<g clip-path="url(#clip1_3_150)">
<path d="M64 27C62.1973 27 60.75 28.4473 60.75 30.25V33.5C60.75 35.3027 62.1973 36.75 64 36.75C65.8027 36.75 67.25 35.3027 67.25 33.5V30.25C67.25 28.4473 65.8027 27 64 27ZM47.7754 33.5127C46.9375 33.5127 46.1123 33.8428 45.4775 34.4775C44.1953 35.7471 44.1953 37.791 45.4775 39.0732L47.7754 41.3711C49.0449 42.6406 51.0889 42.6406 52.3711 41.3711C53.6406 40.0889 53.6406 38.0449 52.3711 36.7754L50.0732 34.4775C49.4385 33.8428 48.6006 33.5127 47.7754 33.5127ZM80.2246 33.5127C79.3994 33.5127 78.5615 33.8428 77.9268 34.4775L75.6289 36.7754C74.3594 38.0449 74.3594 40.0889 75.6289 41.3711C76.9111 42.6406 78.9551 42.6406 80.2246 41.3711L82.5225 39.0732C83.8047 37.791 83.8047 35.7471 82.5225 34.4775C81.8877 33.8428 81.0625 33.5127 80.2246 33.5127ZM64 40C56.8145 40 51 45.8145 51 53C51 60.1855 56.8145 66 64 66C71.1855 66 77 60.1855 77 53C77 45.8145 71.1855 40 64 40ZM41.25 49.75C39.4473 49.75 38 51.1973 38 53C38 54.8027 39.4473 56.25 41.25 56.25H44.5C46.3027 56.25 47.75 54.8027 47.75 53C47.75 51.1973 46.3027 49.75 44.5 49.75H41.25ZM83.5 49.75C81.6973 49.75 80.25 51.1973 80.25 53C80.25 54.8027 81.6973 56.25 83.5 56.25H86.75C88.5527 56.25 90 54.8027 90 53C90 51.1973 88.5527 49.75 86.75 49.75H83.5ZM49.9082 63.6768C49.1338 63.7148 48.3721 64.0322 47.7754 64.6289L45.4775 66.9268C44.1953 68.209 44.1953 70.2529 45.4775 71.5225C46.7471 72.8047 48.791 72.8047 50.0732 71.5225L52.3711 69.2246C53.6406 67.9551 53.6406 65.9111 52.3711 64.6289C51.6855 63.9561 50.7969 63.6387 49.9082 63.6768ZM77.7744 63.6768C77 63.7148 76.2256 64.0322 75.6289 64.6289C74.3594 65.9111 74.3594 67.9551 75.6289 69.2246L77.9268 71.5225C79.209 72.8047 81.2529 72.8047 82.5225 71.5225C83.8047 70.2529 83.8047 68.209 82.5225 66.9268L80.2246 64.6289C79.5518 63.9561 78.6504 63.6387 77.7744 63.6768ZM63.835 69.25C62.1084 69.3389 60.75 70.7607 60.75 72.5V75.75C60.75 77.5527 62.1973 79 64 79C65.8027 79 67.25 77.5527 67.25 75.75V72.5C67.25 70.6973 65.8027 69.25 64 69.25C63.9492 69.25 63.8857 69.25 63.835 69.25Z" fill="url(#paint2_linear_3_150)"/>
</g>
</g>
<defs>
<linearGradient id="paint0_linear_3_150" x1="12.0009" y1="97.9998" x2="116" y2="97.9998" gradientUnits="userSpaceOnUse">
<stop stop-color="#77767B"/>
<stop offset="0.0357143" stop-color="#C0BFBC"/>
<stop offset="0.0713653" stop-color="#9A9996"/>
<stop offset="0.928571" stop-color="#9A9996"/>
<stop offset="0.964286" stop-color="#C0BFBC"/>
<stop offset="1" stop-color="#77767B"/>
</linearGradient>
<radialGradient id="paint1_radial_3_150" cx="0" cy="0" r="1" gradientUnits="userSpaceOnUse" gradientTransform="translate(34.6667 36.5333) scale(103.439 66.1334)">
<stop stop-color="#50DBB5"/>
<stop offset="1" stop-color="#4A86CF"/>
</radialGradient>
<linearGradient id="paint2_linear_3_150" x1="64" y1="27" x2="64" y2="79" gradientUnits="userSpaceOnUse">
<stop stop-color="#F9F06B"/>
<stop offset="1" stop-color="#FFA348"/>
</linearGradient>
<clipPath id="clip0_3_150">
<rect width="128" height="128" fill="white"/>
</clipPath>
<clipPath id="clip1_3_150">
<rect width="52" height="52" fill="white" transform="translate(38 27)"/>
</clipPath>
</defs>
</svg>
