<?xml version="1.0" encoding="UTF-8"?>
<svg height="128px" viewBox="0 0 128 128" width="128px" xmlns="http://www.w3.org/2000/svg" xmlns:xlink="http://www.w3.org/1999/xlink">
    <linearGradient id="a" gradientUnits="userSpaceOnUse" x1="43.99992946939" x2="83.71929004002" y1="118.99997694612" y2="118.99997694612">
        <stop offset="0" stop-color="#9a9996"/>
        <stop offset="0.0950709" stop-color="#cececc"/>
        <stop offset="0.209258" stop-color="#84837f"/>
        <stop offset="0.784173" stop-color="#9a9996"/>
        <stop offset="0.916805" stop-color="#bcbcba"/>
        <stop offset="1" stop-color="#595956"/>
    </linearGradient>
    <linearGradient id="b" gradientUnits="userSpaceOnUse" x1="61.99993853" x2="61.99993853" y1="83.99998243375" y2="107.99997861972">
        <stop offset="0"/>
        <stop offset="1" stop-opacity="0"/>
    </linearGradient>
    <linearGradient id="c" gradientUnits="userSpaceOnUse" x1="59.99993475999" x2="59.99993475999" y1="17.99999907941" y2="75.99998361776">
        <stop offset="0" stop-color="#1a5fb4"/>
        <stop offset="1" stop-color="#3584e4"/>
    </linearGradient>
    <path d="m 55.644531 55.34375 c -3.699219 0.003906 -6.78125 2.839844 -7.089843 6.527344 l -4.191407 50.304687 c -0.167969 1.980469 0.507813 3.941407 1.851563 5.40625 c 1.347656 1.464844 3.246094 2.296875 5.238281 2.296875 h 25.152344 c 1.988281 0 3.886719 -0.832031 5.234375 -2.296875 c 1.347656 -1.464843 2.019531 -3.425781 1.855468 -5.40625 l -4.191406 -50.304687 c -0.308594 -3.6875 -3.390625 -6.523438 -7.089844 -6.527344 z m 0 0" fill="url(#a)"/>
    <path d="m 55.644531 52.96875 c -3.699219 0.003906 -6.78125 2.839844 -7.089843 6.527344 l -4.191407 50.304687 c -0.167969 1.980469 0.507813 3.941407 1.851563 5.40625 c 1.347656 1.464844 3.246094 2.296875 5.238281 2.296875 h 25.152344 c 1.988281 0 3.886719 -0.832031 5.234375 -2.296875 c 1.347656 -1.464843 2.019531 -3.425781 1.855468 -5.40625 l -4.191406 -50.304687 c -0.308594 -3.6875 -3.390625 -6.523438 -7.089844 -6.527344 z m 0 0" fill="#c0bfbc"/>
    <path d="m 55.644531 52.96875 c -3.699219 0.003906 -6.78125 2.839844 -7.089843 6.527344 l -4.191407 50.304687 c -0.167969 1.980469 0.507813 3.941407 1.851563 5.40625 c 1.347656 1.464844 3.246094 2.296875 5.238281 2.296875 h 25.152344 c 1.988281 0 3.886719 -0.832031 5.234375 -2.296875 c 1.347656 -1.464843 2.019531 -3.425781 1.855468 -5.40625 l -4.191406 -50.304687 c -0.308594 -3.6875 -3.390625 -6.523438 -7.089844 -6.527344 z m 0 0" fill="url(#b)"/>
    <path d="m 15.617188 9.761719 c -4.1875 0 -7.5625 3.371093 -7.5625 7.5625 v 69.359375 h 0.085937 v 6.867187 c 0 4.644531 3.738281 8.378907 8.386719 8.378907 h 95.085937 c 4.648438 0 8.386719 -3.734376 8.386719 -8.378907 v -76.226562 c 0 -4.191407 -3.371094 -7.5625 -7.558594 -7.5625 z m 0 0" fill="#c0bfbc"/>
    <path d="m 16.398438 13.347656 h 94.949218 c 2.570313 0 4.652344 2.082032 4.652344 4.652344 v 71.347656 c 0 2.570313 -2.082031 4.652344 -4.652344 4.652344 h -94.949218 c -2.570313 0 -4.652344 -2.082031 -4.652344 -4.652344 v -71.347656 c 0 -2.570312 2.082031 -4.652344 4.652344 -4.652344 z m 0 0" fill="url(#c)"/>
    <path d="m 47.980469 79.71875 h 32.019531 c 1.09375 0 1.980469 -0.886719 1.980469 -1.980469 v -4.039062 c 0 -0.496094 -0.214844 -0.96875 -0.59375 -1.296875 c -0.375 -0.324219 -0.875 -0.472656 -1.367188 -0.402344 l -32.261719 4.609375 c -0.8125 0.117187 -1.394531 0.839844 -1.335937 1.65625 c 0.054687 0.820313 0.738281 1.453125 1.558594 1.453125 z m 0 0" fill="#1a5fb4"/>
    <path d="m 63.871094 33.675781 c -1.105469 0 -2 0.890625 -2 2 v 2 c 0 1.105469 0.894531 2 2 2 c 1.109375 0 2 -0.894531 2 -2 v -2 c 0 -1.109375 -0.890625 -2 -2 -2 z m -9.988282 4.007813 c -0.507812 0 -1.019531 0.195312 -1.414062 0.589844 c -0.78125 0.78125 -0.78125 2.042968 0 2.828124 l 1.414062 1.414063 c 0.785157 0.78125 2.046876 0.78125 2.828126 0 c 0.785156 -0.785156 0.785156 -2.046875 0 -2.828125 l -1.414063 -1.414062 c -0.390625 -0.394532 -0.902344 -0.589844 -1.414063 -0.589844 z m 19.976563 0 c -0.511719 0 -1.019531 0.195312 -1.414063 0.589844 l -1.414062 1.414062 c -0.78125 0.78125 -0.78125 2.042969 0 2.828125 c 0.785156 0.78125 2.046875 0.78125 2.828125 0 l 1.414063 -1.414063 c 0.785156 -0.785156 0.785156 -2.046874 0 -2.828124 c -0.390626 -0.394532 -0.902344 -0.589844 -1.414063 -0.589844 z m -9.988281 3.992187 c -4.417969 0 -8 3.578125 -8 7.996094 c 0 4.421875 3.582031 8 8 8 c 4.417968 0 8 -3.578125 8 -8 c 0 -4.417969 -3.582032 -7.996094 -8 -7.996094 z m 0 3.996094 c 2.210937 0 4 1.792969 4 4 c 0 2.210937 -1.789063 4 -4 4 c -2.207032 0 -4 -1.789063 -4 -4 c 0 -2.207031 1.792968 -4 4 -4 z m -14 2 c -1.105469 0 -2 0.894531 -2 2 c 0 1.109375 0.894531 2 2 2 h 2 c 1.109375 0 2 -0.890625 2 -2 c 0 -1.105469 -0.890625 -2 -2 -2 z m 26 0 c -1.105469 0 -2 0.894531 -2 2 c 0 1.109375 0.894531 2 2 2 h 2 c 1.109375 0 2 -0.890625 2 -2 c 0 -1.105469 -0.890625 -2 -2 -2 z m -20.671875 8.574219 c -0.476563 0.023437 -0.949219 0.21875 -1.316407 0.585937 l -1.414062 1.414063 c -0.78125 0.785156 -0.78125 2.046875 0 2.828125 c 0.785156 0.785156 2.046875 0.785156 2.828125 0 l 1.414063 -1.414063 c 0.785156 -0.78125 0.785156 -2.042968 0 -2.828125 c -0.414063 -0.414062 -0.96875 -0.609375 -1.511719 -0.585937 z m 17.148437 0 c -0.476562 0.023437 -0.949218 0.21875 -1.316406 0.585937 c -0.78125 0.785157 -0.78125 2.046875 0 2.828125 l 1.414062 1.414063 c 0.785157 0.785156 2.046876 0.785156 2.828126 0 c 0.785156 -0.78125 0.785156 -2.042969 0 -2.828125 l -1.414063 -1.414063 c -0.414063 -0.414062 -0.96875 -0.609375 -1.511719 -0.585937 z m -8.582031 3.425781 c -1.058594 0.054687 -1.894531 0.929687 -1.894531 2 v 2 c 0 1.109375 0.894531 2 2 2 c 1.109375 0 2 -0.890625 2 -2 v -2 c 0 -1.105469 -0.890625 -2 -2 -2 c -0.03125 0 -0.070313 0 -0.105469 0 z m 0 0" fill="#1a5fb4"/>
    <g fill="#ffffff">
        <path d="m 63.871094 31.675781 c -1.105469 0 -2 0.890625 -2 2 v 2 c 0 1.105469 0.894531 2 2 2 c 1.109375 0 2 -0.894531 2 -2 v -2 c 0 -1.109375 -0.890625 -2 -2 -2 z m -9.988282 4.007813 c -0.507812 0 -1.019531 0.195312 -1.414062 0.589844 c -0.78125 0.78125 -0.78125 2.042968 0 2.828124 l 1.414062 1.414063 c 0.785157 0.78125 2.046876 0.78125 2.828126 0 c 0.785156 -0.785156 0.785156 -2.046875 0 -2.828125 l -1.414063 -1.414062 c -0.390625 -0.394532 -0.902344 -0.589844 -1.414063 -0.589844 z m 19.976563 0 c -0.511719 0 -1.019531 0.195312 -1.414063 0.589844 l -1.414062 1.414062 c -0.78125 0.78125 -0.78125 2.042969 0 2.828125 c 0.785156 0.78125 2.046875 0.78125 2.828125 0 l 1.414063 -1.414063 c 0.785156 -0.785156 0.785156 -2.046874 0 -2.828124 c -0.390626 -0.394532 -0.902344 -0.589844 -1.414063 -0.589844 z m -9.988281 3.992187 c -4.417969 0 -8 3.578125 -8 7.996094 c 0 4.421875 3.582031 8 8 8 c 4.417968 0 8 -3.578125 8 -8 c 0 -4.417969 -3.582032 -7.996094 -8 -7.996094 z m 0 3.996094 c 2.210937 0 4 1.792969 4 4 c 0 2.210937 -1.789063 4 -4 4 c -2.207032 0 -4 -1.789063 -4 -4 c 0 -2.207031 1.792968 -4 4 -4 z m -14 2 c -1.105469 0 -2 0.894531 -2 2 c 0 1.109375 0.894531 2 2 2 h 2 c 1.109375 0 2 -0.890625 2 -2 c 0 -1.105469 -0.890625 -2 -2 -2 z m 26 0 c -1.105469 0 -2 0.894531 -2 2 c 0 1.109375 0.894531 2 2 2 h 2 c 1.109375 0 2 -0.890625 2 -2 c 0 -1.105469 -0.890625 -2 -2 -2 z m -20.671875 8.574219 c -0.476563 0.023437 -0.949219 0.21875 -1.316407 0.585937 l -1.414062 1.414063 c -0.78125 0.785156 -0.78125 2.046875 0 2.828125 c 0.785156 0.785156 2.046875 0.785156 2.828125 0 l 1.414063 -1.414063 c 0.785156 -0.78125 0.785156 -2.042968 0 -2.828125 c -0.414063 -0.414062 -0.96875 -0.609375 -1.511719 -0.585937 z m 17.148437 0 c -0.476562 0.023437 -0.949218 0.21875 -1.316406 0.585937 c -0.78125 0.785157 -0.78125 2.046875 0 2.828125 l 1.414062 1.414063 c 0.785157 0.785156 2.046876 0.785156 2.828126 0 c 0.785156 -0.78125 0.785156 -2.042969 0 -2.828125 l -1.414063 -1.414063 c -0.414063 -0.414062 -0.96875 -0.609375 -1.511719 -0.585937 z m -8.582031 3.425781 c -1.058594 0.054687 -1.894531 0.929687 -1.894531 2 v 2 c 0 1.109375 0.894531 2 2 2 c 1.109375 0 2 -0.890625 2 -2 v -2 c 0 -1.105469 -0.890625 -2 -2 -2 c -0.03125 0 -0.070313 0 -0.105469 0 z m 0 0"/>
        <path d="m 47.980469 77.71875 h 32.019531 c 1.09375 0 1.980469 -0.886719 1.980469 -1.980469 v -4.039062 c 0 -0.496094 -0.214844 -0.96875 -0.59375 -1.296875 c -0.375 -0.324219 -0.875 -0.472656 -1.367188 -0.402344 l -32.261719 4.609375 c -0.8125 0.117187 -1.394531 0.839844 -1.335937 1.65625 c 0.054687 0.820313 0.738281 1.453125 1.558594 1.453125 z m 0 0"/>
    </g>
</svg>
